<svg width="29" height="30" viewBox="0 0 29 30" fill="none" xmlns="http://www.w3.org/2000/svg">
<rect width="29" height="29" transform="translate(0 0.5)" fill="white"/>
<path d="M22.9557 24.6667V5.33333C22.9557 4.66599 22.4147 4.125 21.7474 4.125H11.9771C11.6566 4.125 11.3493 4.25231 11.1226 4.47891L6.39298 9.20859C6.16637 9.43519 6.03906 9.74254 6.03906 10.063V24.6667C6.03906 25.334 6.58005 25.875 7.2474 25.875H21.7474C22.4147 25.875 22.9557 25.334 22.9557 24.6667Z" fill="#EDC8FF"/>
<path d="M12.0807 4.125V8.95833C12.0807 9.62568 11.5397 10.1667 10.8724 10.1667H6.03906M10.8724 22.25V19.8333M14.4974 22.25V15M18.1224 22.25V18.625M22.9557 5.33333V24.6667C22.9557 25.334 22.4147 25.875 21.7474 25.875H7.2474C6.58005 25.875 6.03906 25.334 6.03906 24.6667V10.063C6.03906 9.74254 6.16637 9.43519 6.39298 9.20859L11.1226 4.47891C11.3493 4.25231 11.6566 4.125 11.9771 4.125H21.7474C22.4147 4.125 22.9557 4.66599 22.9557 5.33333Z" stroke="#8848E8" stroke-width="1.5" stroke-linecap="round" stroke-linejoin="round"/>
</svg>
