<svg width="25" height="24" viewBox="0 0 25 24" fill="none" xmlns="http://www.w3.org/2000/svg">
<path d="M3.03906 6.58301L12.5226 1.16992L21.9519 6.67617" fill="#EDC8FF"/>
<path d="M3.03906 6.58301L12.5226 1.16992L21.9519 6.67617" stroke="#8848E8" stroke-miterlimit="10" stroke-linecap="round" stroke-linejoin="round"/>
<path d="M24.2023 21.8853C24.2023 22.4076 23.7789 22.831 23.2566 22.831H1.74256C1.22031 22.831 0.796875 22.4077 0.796875 21.8853V7.62147C0.796875 7.09906 1.22015 6.67578 1.74256 6.67578H23.2566C23.7787 6.67578 24.2023 7.09906 24.2023 7.62147V21.8853Z" fill="#EDC8FF" stroke="#8848E8" stroke-miterlimit="10" stroke-linecap="round" stroke-linejoin="round"/>
<path d="M12.9329 2.67724C12.9329 2.91531 12.7395 3.10838 12.5015 3.10838C12.2632 3.10838 12.0703 2.91531 12.0703 2.67724C12.0703 2.43901 12.2634 2.24609 12.5015 2.24609C12.7395 2.24609 12.9329 2.43901 12.9329 2.67724Z" fill="#EDC8FF" stroke="#8848E8" stroke-miterlimit="10" stroke-linecap="round" stroke-linejoin="round"/>
<path d="M6.80527 17.9843C6.80527 18.5923 6.31151 19.0858 5.70334 19.0858C5.09455 19.0858 4.60156 18.5923 4.60156 17.9843C4.60156 17.3758 5.09455 16.8828 5.70334 16.8828C6.31151 16.8828 6.80527 17.3758 6.80527 17.9843Z" fill="#EDC8FF" stroke="#8848E8" stroke-miterlimit="10" stroke-linecap="round" stroke-linejoin="round"/>
<path d="M11.0084 12.8163C11.0084 13.4243 10.5146 13.9176 9.90647 13.9176C9.29783 13.9176 8.80469 13.4243 8.80469 12.8163C8.80469 12.2077 9.29783 11.7148 9.90647 11.7148C10.5148 11.7148 11.0084 12.2077 11.0084 12.8163Z" fill="#EDC8FF" stroke="#8848E8" stroke-miterlimit="10" stroke-linecap="round" stroke-linejoin="round"/>
<path d="M16.4303 14.7537C16.4303 15.3618 15.9365 15.8548 15.3282 15.8548C14.7195 15.8548 14.2266 15.3618 14.2266 14.7537C14.2266 14.1452 14.7195 13.6523 15.3282 13.6523C15.9365 13.6523 16.4303 14.1452 16.4303 14.7537Z" fill="#EDC8FF" stroke="#8848E8" stroke-miterlimit="10" stroke-linecap="round" stroke-linejoin="round"/>
<path d="M21.9535 10.613C21.9535 11.2214 21.4599 11.7145 20.8516 11.7145C20.243 11.7145 19.75 11.2212 19.75 10.613C19.75 10.0047 20.243 9.51172 20.8516 9.51172C21.4601 9.51172 21.9535 10.0047 21.9535 10.613Z" fill="#EDC8FF" stroke="#8848E8" stroke-miterlimit="10" stroke-linecap="round" stroke-linejoin="round"/>
<path d="M2.63281 19.9154L4.83086 18.6387" stroke="#8848E8" stroke-miterlimit="10" stroke-linecap="round" stroke-linejoin="round"/>
<path d="M6.35938 17.1078L9.2548 13.6523" stroke="#8848E8" stroke-miterlimit="10" stroke-linecap="round" stroke-linejoin="round"/>
<path d="M11.0078 13.2578L14.2279 14.3797" stroke="#8848E8" stroke-miterlimit="10" stroke-linecap="round" stroke-linejoin="round"/>
<path d="M16.4922 14.1412L19.9588 11.2539" stroke="#8848E8" stroke-miterlimit="10" stroke-linecap="round" stroke-linejoin="round"/>
</svg>
