<svg width="34" height="34" viewBox="0 0 34 34" fill="none" xmlns="http://www.w3.org/2000/svg">
<path d="M33.6862 31.9407C33.589 31.2906 33.3533 30.4564 32.8738 29.6543C32.6347 29.2524 32.3354 28.8579 31.9749 28.4833C31.6241 28.1 31.2427 27.7069 30.8409 27.3075C30.4342 26.9125 30.0072 26.5117 29.5582 26.1191C29.1073 25.729 28.6429 25.3388 28.1643 24.9637C27.2081 24.2101 26.214 23.494 25.3015 22.8036C24.3828 22.1195 23.548 21.4597 22.8484 20.8771C22.502 20.5822 22.1808 20.3159 21.9082 20.0677C21.6313 19.8233 21.4136 19.5867 21.2382 19.3899C21.0774 19.2077 20.9618 19.0527 20.8801 18.9366C22.4539 16.9436 23.3984 14.4302 23.3984 11.6996C23.3984 5.24831 18.1505 0 11.6992 0C5.24834 0 0 5.24831 0 11.6996C0 18.1495 5.24834 23.3983 11.6992 23.3983C14.7767 23.3983 17.5787 22.2021 19.6689 20.2523C19.7763 20.331 19.9094 20.434 20.0605 20.5666C20.2578 20.743 20.4949 20.9607 20.7388 21.2371C20.9875 21.5097 21.2528 21.8313 21.5477 22.1773C22.1313 22.8764 22.7901 23.7121 23.4747 24.6299C24.1661 25.5419 24.8818 26.5365 25.6344 27.4912C26.0099 27.9717 26.3996 28.4362 26.7907 28.8876C27.1828 29.3355 27.5837 29.7626 27.9782 30.1693C28.3781 30.5706 28.7706 30.9525 29.155 31.3038C29.5296 31.6638 29.9241 31.9636 30.3254 32.2021C31.1281 32.6812 31.9623 32.9159 32.6119 33.0135C32.9394 33.0606 33.2236 33.0699 33.4194 33.0747C33.6191 33.0752 33.7357 33.0645 33.7357 33.0645C33.7357 33.0645 33.7459 32.947 33.7454 32.7478C33.7425 32.5519 33.7338 32.2682 33.6862 31.9407Z" fill="black"/>
<path d="M11.7024 22.0731C5.98273 22.0731 1.32812 17.419 1.32812 11.6994C1.32812 5.97831 5.98225 1.32422 11.7024 1.32422C17.4225 1.32422 22.0776 5.97831 22.0776 11.6994C22.0781 17.419 17.423 22.0731 11.7024 22.0731Z" fill="#EEF1EE"/>
<path d="M15.5169 2.05399C14.3353 1.58513 13.0492 1.32422 11.7024 1.32422C5.98273 1.32422 1.32812 5.97832 1.32812 11.6994C1.32812 12.691 1.47097 13.6506 1.73285 14.5601C1.74451 14.5601 1.75715 14.5616 1.77124 14.5616C8.94653 14.5616 14.8581 9.05918 15.5169 2.05399Z" fill="white"/>
<path d="M21.5469 22.1777C21.6572 22.3094 21.7709 22.4493 21.8855 22.5902C21.7704 22.4484 21.6567 22.3094 21.5469 22.1777Z" fill="#8848E8"/>
<path d="M22.8516 20.877C22.9832 20.9868 23.1227 21.1005 23.2645 21.2156C23.1241 21.1009 22.9832 20.9868 22.8516 20.877Z" fill="#8848E8"/>
<path d="M33.6853 31.9406C33.5881 31.2905 33.3525 30.4563 32.8729 29.6541C32.6339 29.2523 32.3346 28.8578 31.9741 28.4832C31.6233 28.0998 31.2419 27.7068 30.8401 27.3074C30.4334 26.9124 30.0063 26.5115 29.5574 26.119C29.1065 25.7288 28.642 25.3387 28.1634 24.9636C27.2072 24.21 26.2132 23.4938 25.3007 22.8034C24.6817 22.3419 24.1045 21.8939 23.5759 21.4707L22.1411 22.9059C22.5653 23.4336 23.0128 24.0113 23.4738 24.6303C24.1652 25.5422 24.8809 26.5368 25.6335 27.4915C26.0091 27.9721 26.3988 28.4365 26.7899 28.8879C27.182 29.3359 27.5828 29.763 27.9773 30.1696C28.3772 30.5709 28.7698 30.9528 29.1541 31.3041C29.5287 31.6641 29.9232 31.9639 30.3246 32.2025C31.1272 32.6815 31.9615 32.9162 32.6111 33.0139C32.9385 33.061 33.2228 33.0702 33.4186 33.0751C33.6183 33.0756 33.7349 33.0649 33.7349 33.0649C33.7349 33.0649 33.7451 32.9473 33.7446 32.7481C33.7417 32.5518 33.7329 32.2681 33.6853 31.9406Z" fill="#8848E8"/>
</svg>
