<svg width="26" height="33" viewBox="0 0 26 33" fill="none" xmlns="http://www.w3.org/2000/svg">
<path d="M10.743 2.11749C11.9013 0.627503 14.1254 0.627503 15.2837 2.11749C15.9064 2.91856 16.8936 3.33401 17.8915 3.21491C19.7476 2.99338 21.3203 4.59112 21.1023 6.47676C20.985 7.49054 21.394 8.49352 22.1825 9.12616C23.6491 10.3029 23.6491 12.5624 22.1825 13.7391C21.394 14.3717 20.985 15.3747 21.1023 16.3885C21.3203 18.2741 19.7476 19.8719 17.8915 19.6504C16.8936 19.5312 15.9064 19.9467 15.2837 20.7478C14.1254 22.2378 11.9013 22.2378 10.743 20.7478C10.1203 19.9467 9.13302 19.5312 8.13512 19.6504C6.27905 19.8719 4.70634 18.2741 4.9244 16.3885C5.04164 15.3747 4.6327 14.3717 3.84418 13.7391C2.37755 12.5624 2.37755 10.3029 3.84418 9.12616C4.6327 8.49352 5.04164 7.49054 4.9244 6.47676C4.70634 4.59112 6.27904 2.99338 8.13512 3.21491C9.13302 3.33401 10.1203 2.91856 10.743 2.11749Z" fill="#F4DCFF"/>
<path d="M16.4544 11.4326C16.4544 13.3634 14.9138 14.9285 13.0133 14.9285C11.1128 14.9285 9.5722 13.3634 9.5722 11.4326C9.5722 9.50189 11.1128 7.93672 13.0133 7.93672C14.9138 7.93672 16.4544 9.50189 16.4544 11.4326Z" fill="#F4DCFF"/>
<path d="M4.70563 18.2605L1 29.467L5.59772 27.9099L8.29588 31.9999L11.4367 22.9413M21.2944 18.2606L25 29.4671L20.4023 27.91L17.7041 32L14.5633 22.9413M8.13512 3.21491C9.13302 3.33401 10.1203 2.91856 10.743 2.11749C11.9013 0.627503 14.1254 0.627503 15.2837 2.11749C15.9064 2.91856 16.8936 3.33401 17.8915 3.21491C19.7476 2.99338 21.3203 4.59112 21.1023 6.47676C20.985 7.49054 21.394 8.49352 22.1825 9.12616C23.6491 10.3029 23.6491 12.5624 22.1825 13.7391C21.394 14.3717 20.985 15.3747 21.1023 16.3885C21.3203 18.2741 19.7476 19.8719 17.8915 19.6504C16.8936 19.5312 15.9064 19.9467 15.2837 20.7478C14.1254 22.2378 11.9013 22.2378 10.743 20.7478C10.1203 19.9467 9.13302 19.5312 8.13512 19.6504C6.27905 19.8719 4.70634 18.2741 4.9244 16.3885C5.04164 15.3747 4.6327 14.3717 3.84418 13.7391C2.37755 12.5624 2.37755 10.3029 3.84418 9.12616C4.6327 8.49352 5.04164 7.49054 4.9244 6.47676C4.70634 4.59112 6.27904 2.99338 8.13512 3.21491ZM16.4544 11.4326C16.4544 13.3634 14.9138 14.9285 13.0133 14.9285C11.1128 14.9285 9.5722 13.3634 9.5722 11.4326C9.5722 9.50189 11.1128 7.93672 13.0133 7.93672C14.9138 7.93672 16.4544 9.50189 16.4544 11.4326Z" stroke="#8848E8" stroke-width="2" stroke-linecap="round" stroke-linejoin="round"/>
</svg>
