<svg width="34" height="27" viewBox="0 0 34 27" fill="none" xmlns="http://www.w3.org/2000/svg">
<path d="M31.8472 1H3.40278C2.42094 1 1.625 1.79949 1.625 2.78571V11.7143H33.625V2.78571C33.625 1.79949 32.8291 1 31.8472 1Z" fill="#F4DCFF"/>
<path d="M1.625 18.8571V24.2143C1.625 25.2005 2.42094 26 3.40278 26H22.0694M1.625 18.8571V11.7143M1.625 18.8571H21.1806M1.625 11.7143V2.78571C1.625 1.79949 2.42094 1 3.40278 1H31.8472C32.8291 1 33.625 1.79949 33.625 2.78571V11.7143M1.625 11.7143H33.625M33.625 11.7143V13.5M10.5139 11.7143V26M17.625 11.7143V26M24.7361 11.7143V15.2857M26.5139 22.4286H30.0694M30.0694 22.4286H33.625M30.0694 22.4286V26M30.0694 22.4286V18.8571" stroke="#8848E8" stroke-width="2" stroke-linecap="round" stroke-linejoin="round"/>
</svg>
