<svg width="30" height="29" viewBox="0 0 30 29" fill="none" xmlns="http://www.w3.org/2000/svg">
<path d="M22.3763 21.9241H22.6263V21.6741V1.33949C22.6263 0.699155 23.0532 0.25 23.5134 0.25C23.9794 0.25 24.4324 0.709105 24.4324 1.33949V21.6741V21.9241H24.6824H28.2606C28.7373 21.9241 29.1814 22.3585 29.1814 22.979C29.1814 23.5708 28.7327 24.0338 28.2606 24.0338H24.6824H24.4324V24.2838V27.6951C24.4324 28.2863 23.9826 28.75 23.5134 28.75C23.0494 28.75 22.6263 28.2963 22.6263 27.6951V24.2838V24.0338H22.3763H1.13799C0.672915 24.0338 0.250001 23.5808 0.250001 22.979L0.250001 22.9787C0.249241 22.3489 0.668914 21.9241 1.13799 21.9241H22.3763ZM8.65282 8.41936L8.65278 8.4194L4.90619 12.1678C4.90612 12.1678 4.90606 12.1679 4.90599 12.168C4.60134 12.4717 4.09121 12.4714 3.78779 12.168L3.48599 11.8662C3.33808 11.7183 3.2583 11.5175 3.2583 11.2733C3.2583 11.0603 3.3402 10.8281 3.48597 10.6814C3.4861 10.6813 3.48624 10.6811 3.48638 10.681L9.00496 5.19617L9.0057 5.19543C9.30836 4.8921 9.78711 4.8921 10.0898 5.19543L10.09 5.19563L11.9966 7.10234L11.997 7.10273C12.2485 7.35308 12.5796 7.47558 12.9093 7.47558C13.2386 7.47558 13.571 7.35329 13.822 7.10234L13.8228 7.10155L17.6024 3.28813L17.7777 3.11125L17.6015 2.93525L16.8658 2.20037L16.8657 2.20026C16.8133 2.14781 16.783 2.05527 16.8241 1.9279C16.8469 1.87585 16.9079 1.82381 17.0236 1.82381H20.134C20.3099 1.82381 20.4403 1.86979 20.5508 1.97517C20.6567 2.11027 20.7195 2.2536 20.7202 2.40661L20.6537 5.44833L20.6536 5.44833V5.4538C20.6536 5.56728 20.6019 5.62984 20.5489 5.6535C20.4218 5.69433 20.3291 5.66314 20.2785 5.61227L20.2779 5.6116L19.4071 4.74167L19.2308 4.56561L19.0541 4.74123L13.6367 10.1258L13.6303 10.1322L13.6244 10.139C13.4438 10.3465 13.1805 10.4543 12.9102 10.4543C12.6445 10.4543 12.3713 10.3479 12.1508 10.1266L12.1505 10.1264L10.4444 8.41941L10.4444 8.41936C9.94642 7.9214 9.15079 7.92139 8.65282 8.41936ZM18.6779 9.21453H20.9554V19.5192H18.6779V9.21453ZM5.93549 16.2049H8.21124V19.7864H5.93549V16.2049ZM10.183 14.7997H12.4587V19.6843H10.183V14.7997ZM14.4305 12.1909H16.708V19.6177H14.4305V12.1909Z" fill="#EDC8FF" stroke="#8848E8" stroke-width="0.5"/>
</svg>
