<svg width="35" height="27" viewBox="0 0 35 27" fill="none" xmlns="http://www.w3.org/2000/svg">
<path d="M3.20573 13.5H31.789C32.9166 13.5 33.8307 14.4141 33.8307 15.5417V23.7083C33.8307 24.8359 32.9166 25.75 31.789 25.75H3.20573C2.07815 25.75 1.16406 24.8359 1.16406 23.7083V15.5417C1.16406 14.4141 2.07815 13.5 3.20573 13.5Z" fill="#F4DCFF"/>
<path d="M3.20573 1.25H31.789C32.9166 1.25 33.8307 2.16409 33.8307 3.29167V11.4583C33.8307 12.5859 32.9166 13.5 31.789 13.5H3.20573C2.07815 13.5 1.16406 12.5859 1.16406 11.4583V3.29167C1.16406 2.16409 2.07815 1.25 3.20573 1.25Z" fill="#F4DCFF"/>
<path d="M3.20573 13.5C2.07815 13.5 1.16406 14.4141 1.16406 15.5417V23.7083C1.16406 24.8359 2.07815 25.75 3.20573 25.75H31.789C32.9166 25.75 33.8307 24.8359 33.8307 23.7083V15.5417C33.8307 14.4141 32.9166 13.5 31.789 13.5M3.20573 13.5H31.789M3.20573 13.5C2.07815 13.5 1.16406 12.5859 1.16406 11.4583V3.29167C1.16406 2.16409 2.07815 1.25 3.20573 1.25H31.789C32.9166 1.25 33.8307 2.16409 33.8307 3.29167V11.4583C33.8307 12.5859 32.9166 13.5 31.789 13.5M27.7057 19.625H27.7261M21.5807 19.625H21.6011M27.7057 7.375H27.7261M21.5807 7.375H21.6011" stroke="#8848E8" stroke-width="2" stroke-linecap="round" stroke-linejoin="round"/>
</svg>
