<svg width="34" height="27" viewBox="0 0 34 27" fill="none" xmlns="http://www.w3.org/2000/svg">
<path d="M31.2222 1H2.77778C1.79594 1 1 1.79949 1 2.78571V11.7143H33V2.78571C33 1.79949 32.2041 1 31.2222 1Z" fill="#F4DCFF"/>
<path d="M1 18.8571V24.2143C1 25.2005 1.79594 26 2.77778 26H21.4444M1 18.8571V11.7143M1 18.8571H20.5556M1 11.7143V2.78571C1 1.79949 1.79594 1 2.77778 1H31.2222C32.2041 1 33 1.79949 33 2.78571V11.7143M1 11.7143H33M33 11.7143V13.5M9.88889 11.7143V26M17 11.7143V26M24.1111 11.7143V15.2857M27.481 25.9157L30.1561 23.2287M30.1561 23.2287L32.8313 20.5416M30.1561 23.2287L32.7525 25.8366M30.1561 23.2287L27.5598 20.6207" stroke="#8848E8" stroke-width="2" stroke-linecap="round" stroke-linejoin="round"/>
</svg>
