<svg width="25" height="24" viewBox="0 0 25 24" fill="none" xmlns="http://www.w3.org/2000/svg">
<mask id="path-1-inside-1_1108_248" fill="white">
<path fill-rule="evenodd" clip-rule="evenodd" d="M10.5811 10.3153H7.78794C7.16715 10.3153 6.65943 10.9093 6.65943 11.6806V22.6047C6.65943 23.3768 7.16715 24 7.78794 24H10.5811C11.2019 24 11.7103 23.3768 11.7103 22.6047V11.6806C11.7103 10.9093 11.2019 10.3153 10.5526 10.3153H10.5811ZM17.2113 13.224H14.4466C13.7981 13.224 13.3174 13.729 13.3174 14.3222V22.9018C13.3174 23.5257 13.7981 24 14.4466 24H17.2113C17.8606 24 18.3683 23.5257 18.3683 22.9018V14.3222C18.3683 13.729 17.8613 13.224 17.2113 13.224ZM23.87 8.44498H21.0776C20.456 8.44498 19.9491 8.97992 19.9491 9.63304V22.7828C19.9491 23.4658 20.456 23.9992 21.0776 23.9992H23.87C24.4915 23.9992 25 23.4651 25 22.7828V9.63304C25 8.97992 24.4915 8.44498 23.87 8.44498ZM7.47716 2.38968V7.13875C7.39329 7.07966 7.30792 7.02057 7.25101 7.02057V2.00364C9.11263 3.22006 10.948 2.38968 12.7535 1.55851C14.2205 0.905397 15.6043 0.252279 16.9582 0.697406V0.994419C16.6744 0.935332 16.3651 0.875455 16.0267 0.875455C14.842 0.875455 13.6843 1.40961 12.5565 1.91461C11.4542 2.41882 10.3549 2.89389 9.25415 2.89389C8.74643 2.89389 8.29564 2.80487 7.81563 2.56773L7.47716 2.38968ZM18.2275 2.56773V1.6176L18.1152 1.49943C17.9167 1.38125 17.7198 1.26229 17.4944 1.17326V0.312156L17.3244 0.252283C15.7166 -0.40162 14.1074 0.341307 12.5573 1.05351C10.6949 1.91461 8.91717 2.71584 7.14018 1.2615L6.7448 0.905395V3.42883V4.49713V7.25771L6.82867 7.34674C7.02711 7.49564 7.25177 7.64375 7.47792 7.76272V8.65297L7.59024 8.71206C7.81639 8.83102 8.0418 8.89089 8.24024 8.97913V9.33524C10.5257 10.0482 12.7819 8.05894 15.0382 7.55473V7.07966C14.6727 7.02057 14.362 6.90161 14.1358 6.66447C13.882 6.42655 13.7696 6.0996 13.7696 5.62532L13.7981 5.59538H14.6436C14.6436 5.86167 14.6728 6.09959 14.8143 6.18862C14.9266 6.33673 15.0966 6.39661 15.2651 6.39661C15.462 6.39661 15.6043 6.33752 15.7166 6.2485C15.8013 6.12954 15.8297 6.01136 15.8297 5.83331C15.8297 5.65447 15.8013 5.50636 15.7166 5.41733C15.6051 5.29916 15.462 5.21013 15.2366 5.1211C14.7851 4.94305 14.4466 4.765 14.2497 4.5578C14.0228 4.34902 13.9389 4.0528 13.9389 3.66676C13.9389 3.3406 14.0228 3.04358 14.2497 2.83481C14.4474 2.59767 14.7581 2.44956 15.1236 2.41962V1.88468C12.8381 2.38968 10.5257 4.37818 8.24097 3.66597C8.24097 5.26922 8.24097 6.84252 8.24097 8.38589C8.15485 8.38589 8.07098 8.32681 7.98561 8.29687V3.22085C8.381 3.36975 8.8041 3.45877 9.2549 3.45877C10.4411 3.45877 11.6257 2.92383 12.7542 2.41962C13.8273 1.94455 14.9551 1.4104 16.0274 1.4104C16.619 1.4104 17.1836 1.58845 17.7198 1.88546V2.24235C17.0151 1.85631 16.3082 1.73735 15.5751 1.82637V2.42041C15.9428 2.47949 16.2244 2.62839 16.4221 2.89547C16.6197 3.16254 16.7059 3.4895 16.7059 3.87554L16.6759 3.90547H15.8305C15.8305 3.66833 15.802 3.46035 15.7174 3.34217C15.6058 3.19327 15.4628 3.13418 15.322 3.13418C15.1243 3.13418 15.0127 3.16412 14.9281 3.28229C14.8443 3.37211 14.8158 3.52022 14.8158 3.66834C14.8158 3.84639 14.8443 3.9945 14.9281 4.08431C15.0127 4.20249 15.182 4.26236 15.4074 4.38133C15.8604 4.58931 16.1697 4.76736 16.3951 4.97457C16.6205 5.18255 16.7066 5.44963 16.7066 5.83567C16.7066 6.19177 16.6205 6.48878 16.3951 6.69677C16.1689 6.90397 15.8866 7.02294 15.5204 7.08203V7.498C16.5074 7.3491 17.5236 7.58703 18.4828 8.47728L18.2275 2.56773ZM3.92167 8.44498H1.15696C0.507712 8.44498 0 8.97992 0 9.63304V22.7828C0 23.4658 0.507712 23.9992 1.15696 23.9992H3.92167C4.57017 23.9992 5.07788 23.4651 5.07788 22.7828V9.63304C5.07788 8.97992 4.57092 8.44498 3.92167 8.44498Z"/>
</mask>
<path fill-rule="evenodd" clip-rule="evenodd" d="M10.5811 10.3153H7.78794C7.16715 10.3153 6.65943 10.9093 6.65943 11.6806V22.6047C6.65943 23.3768 7.16715 24 7.78794 24H10.5811C11.2019 24 11.7103 23.3768 11.7103 22.6047V11.6806C11.7103 10.9093 11.2019 10.3153 10.5526 10.3153H10.5811ZM17.2113 13.224H14.4466C13.7981 13.224 13.3174 13.729 13.3174 14.3222V22.9018C13.3174 23.5257 13.7981 24 14.4466 24H17.2113C17.8606 24 18.3683 23.5257 18.3683 22.9018V14.3222C18.3683 13.729 17.8613 13.224 17.2113 13.224ZM23.87 8.44498H21.0776C20.456 8.44498 19.9491 8.97992 19.9491 9.63304V22.7828C19.9491 23.4658 20.456 23.9992 21.0776 23.9992H23.87C24.4915 23.9992 25 23.4651 25 22.7828V9.63304C25 8.97992 24.4915 8.44498 23.87 8.44498ZM7.47716 2.38968V7.13875C7.39329 7.07966 7.30792 7.02057 7.25101 7.02057V2.00364C9.11263 3.22006 10.948 2.38968 12.7535 1.55851C14.2205 0.905397 15.6043 0.252279 16.9582 0.697406V0.994419C16.6744 0.935332 16.3651 0.875455 16.0267 0.875455C14.842 0.875455 13.6843 1.40961 12.5565 1.91461C11.4542 2.41882 10.3549 2.89389 9.25415 2.89389C8.74643 2.89389 8.29564 2.80487 7.81563 2.56773L7.47716 2.38968ZM18.2275 2.56773V1.6176L18.1152 1.49943C17.9167 1.38125 17.7198 1.26229 17.4944 1.17326V0.312156L17.3244 0.252283C15.7166 -0.40162 14.1074 0.341307 12.5573 1.05351C10.6949 1.91461 8.91717 2.71584 7.14018 1.2615L6.7448 0.905395V3.42883V4.49713V7.25771L6.82867 7.34674C7.02711 7.49564 7.25177 7.64375 7.47792 7.76272V8.65297L7.59024 8.71206C7.81639 8.83102 8.0418 8.89089 8.24024 8.97913V9.33524C10.5257 10.0482 12.7819 8.05894 15.0382 7.55473V7.07966C14.6727 7.02057 14.362 6.90161 14.1358 6.66447C13.882 6.42655 13.7696 6.0996 13.7696 5.62532L13.7981 5.59538H14.6436C14.6436 5.86167 14.6728 6.09959 14.8143 6.18862C14.9266 6.33673 15.0966 6.39661 15.2651 6.39661C15.462 6.39661 15.6043 6.33752 15.7166 6.2485C15.8013 6.12954 15.8297 6.01136 15.8297 5.83331C15.8297 5.65447 15.8013 5.50636 15.7166 5.41733C15.6051 5.29916 15.462 5.21013 15.2366 5.1211C14.7851 4.94305 14.4466 4.765 14.2497 4.5578C14.0228 4.34902 13.9389 4.0528 13.9389 3.66676C13.9389 3.3406 14.0228 3.04358 14.2497 2.83481C14.4474 2.59767 14.7581 2.44956 15.1236 2.41962V1.88468C12.8381 2.38968 10.5257 4.37818 8.24097 3.66597C8.24097 5.26922 8.24097 6.84252 8.24097 8.38589C8.15485 8.38589 8.07098 8.32681 7.98561 8.29687V3.22085C8.381 3.36975 8.8041 3.45877 9.2549 3.45877C10.4411 3.45877 11.6257 2.92383 12.7542 2.41962C13.8273 1.94455 14.9551 1.4104 16.0274 1.4104C16.619 1.4104 17.1836 1.58845 17.7198 1.88546V2.24235C17.0151 1.85631 16.3082 1.73735 15.5751 1.82637V2.42041C15.9428 2.47949 16.2244 2.62839 16.4221 2.89547C16.6197 3.16254 16.7059 3.4895 16.7059 3.87554L16.6759 3.90547H15.8305C15.8305 3.66833 15.802 3.46035 15.7174 3.34217C15.6058 3.19327 15.4628 3.13418 15.322 3.13418C15.1243 3.13418 15.0127 3.16412 14.9281 3.28229C14.8443 3.37211 14.8158 3.52022 14.8158 3.66834C14.8158 3.84639 14.8443 3.9945 14.9281 4.08431C15.0127 4.20249 15.182 4.26236 15.4074 4.38133C15.8604 4.58931 16.1697 4.76736 16.3951 4.97457C16.6205 5.18255 16.7066 5.44963 16.7066 5.83567C16.7066 6.19177 16.6205 6.48878 16.3951 6.69677C16.1689 6.90397 15.8866 7.02294 15.5204 7.08203V7.498C16.5074 7.3491 17.5236 7.58703 18.4828 8.47728L18.2275 2.56773ZM3.92167 8.44498H1.15696C0.507712 8.44498 0 8.97992 0 9.63304V22.7828C0 23.4658 0.507712 23.9992 1.15696 23.9992H3.92167C4.57017 23.9992 5.07788 23.4651 5.07788 22.7828V9.63304C5.07788 8.97992 4.57092 8.44498 3.92167 8.44498Z" fill="#EDC8FF" stroke="#8848E8" stroke-width="2" mask="url(#path-1-inside-1_1108_248)"/>
</svg>
